<?xml version="1.0" encoding="utf-8"?>
<!-- Generator: Adobe Illustrator 22.1.0, SVG Export Plug-In . SVG Version: 6.00 Build 0)  -->
<svg version="1.1" id="Layer_1" xmlns="http://www.w3.org/2000/svg" xmlns:xlink="http://www.w3.org/1999/xlink" x="0px" y="0px"
	 viewBox="0 0 300 284" style="enable-background:new 0 0 300 284;" xml:space="preserve">
<style type="text/css">
	.st0{fill:#FFFFFF;}
</style>
<path class="st0" d="M260.4,107.5l-17.4-6.2c-0.5-1.3-1.1-2.7-1.6-4l7.9-16.7l5.2-10.9l-8.5-8.5l-20.1-20l-8.5-8.5l-10.9,5.2
	l-16.7,8c-1.3-0.6-2.6-1.1-4-1.7l-6.2-17.4l-4-11.3h-52.4l-4,11.3L113,44.2c-1.3,0.5-2.7,1.1-4,1.7l-16.7-8l-10.9-5.2l-8.5,8.5
	l-20.1,20l-8.5,8.5l5.2,10.9l7.9,16.7c-0.6,1.3-1.1,2.6-1.6,4l-17.4,6.2l-11.4,4V164l11.4,4l17.4,6.2c0.5,1.3,1.1,2.7,1.6,4
	l-7.9,16.7l-5.2,10.9l8.5,8.5l20.1,20l8.5,8.5l10.9-5.2l16.7-7.9c1.3,0.6,2.7,1.1,4,1.6l6.2,17.4l4,11.3h52.4l4-11.3l6.2-17.4
	c1.4-0.5,2.7-1.1,4-1.6l16.7,7.9l10.9,5.2l8.5-8.5l20.1-20l8.5-8.5l-5.2-10.9l-7.9-16.7c0.6-1.3,1.1-2.7,1.6-4l17.4-6.2l11.4-4
	v-52.5L260.4,107.5z M149.4,176.4c-21.3,0-38.6-17.3-38.6-38.6s17.3-38.6,38.6-38.6c21.3,0,38.6,17.3,38.6,38.6
	S170.7,176.4,149.4,176.4z"/>
</svg>
